<?xml version="1.0" encoding="utf-8"?>
<!-- Generator: Adobe Illustrator 27.1.1, SVG Export Plug-In . SVG Version: 6.00 Build 0)  -->
<svg version="1.1" id="Layer_1" xmlns="http://www.w3.org/2000/svg" xmlns:xlink="http://www.w3.org/1999/xlink" x="0px" y="0px"
	 viewBox="0 0 512 512" style="enable-background:new 0 0 512 512;" xml:space="preserve">
<g>
	<path d="M252.62,249.5h-32.15v-24.68h-9.73v62.67h9.73v-29.7h32.15v29.7h9.63v-62.67h-9.63 M157.75,224.61
		c-3.53-0.1-10.7-0.1-17.05-0.1v62.92h9.83v-23.86c2.46,0,7.53-0.2,11.62-0.31c5.73-0.1,20.68-2.97,20.58-20.22
		C182.89,223.59,161.33,224.61,157.75,224.61L157.75,224.61z M157.24,255.23h-6.5v-22.68h5.53c2.56,0,17.66-1.13,18.12,10.6
		C175,254.67,163.07,255.23,157.24,255.23L157.24,255.23z M67.02,224.51l0.1,62.92h39.48v-8.19H76.95v-21.35h20.99
		c0-1.79-0.1-4.4,0-7.83H76.95v-17.15h29.64c-0.1-4.97,0-8.4,0-8.4L67.02,224.51L67.02,224.51z M9.63,239.87
		c0-10.29,13.62-10.7,21.66-4.1c2.76-7.94,2.97-8.5,2.97-8.5C10.8,216.01,0.1,230.91,0.1,240.44c0,22.78,32.31,17.92,27.65,33.95
		c-1.64,5.84-12.03,9.16-24.01,1.89c-0.87,2.46-2.3,5.43-3.74,8.4c15.82,8.29,36.35,4.3,37.02-12.8
		C37.94,250.37,9.63,251.9,9.63,239.87L9.63,239.87z M424.55,242.18c-1.43-18.69-19.56-17.25-23.55-17.46
		c-3.33-0.1-10.39-0.2-16.49-0.2v62.82h9.83v-26.42c3.33,0,4.4,0,9.42-0.2l17.92,26.62h11.93l-19.81-28.26
		C419.12,257.13,425.32,252.57,424.55,242.18z M400.44,253.54c-2.2,0-3.89,0-6.09-0.1v-21.25h5.17c2.46,0,15.36-0.77,16.49,9.52
		C417.38,253.9,403.1,253.54,400.44,253.54L400.44,253.54z M489.42,224.61h-11.37l-20.58,62.92h9.73c3.07-11.37,4.1-14.59,4.1-14.59
		l25.45-0.1c2.97,8.4,5.17,14.8,5.17,14.8H512L489.42,224.61L489.42,224.61z M473.55,265.73l9.93-31.08h0.1l10.39,30.98
		L473.55,265.73z M323.28,222.82c-20.02,0-33.08,14.8-33.08,33.18s13.06,33.18,33.08,33.18c20.02,0,33.08-14.8,33.08-33.18
		S343.3,222.82,323.28,222.82z M323.28,280.12c-14.69,0-22.99-10.7-22.99-24.12c0-13.26,8.29-24.12,22.99-24.12
		c14.59,0,22.99,10.7,22.99,24.12C346.27,269.26,337.97,280.12,323.28,280.12z"/>
</g>
</svg>
