<svg xmlns="http://www.w3.org/2000/svg" xmlns:xlink="http://www.w3.org/1999/xlink" width="1000" zoomAndPan="magnify" viewBox="0 0 750 218.249992" height="291" preserveAspectRatio="xMidYMid meet" version="1.0"><defs><clipPath id="2f36b93de1"><path d="M 1.285156 0 L 748.714844 0 L 748.714844 217.503906 L 1.285156 217.503906 Z M 1.285156 0 " clip-rule="nonzero"/></clipPath><clipPath id="fe3b882f7e"><path d="M 7.519531 60 L 742.246094 60 L 742.246094 157 L 7.519531 157 Z M 7.519531 60 " clip-rule="nonzero"/></clipPath></defs><g clip-path="url(#2f36b93de1)"><path fill="#ffffff" d="M 1.285156 0 L 748.714844 0 L 748.714844 217.503906 L 1.285156 217.503906 Z M 1.285156 0 " fill-opacity="1" fill-rule="nonzero"/><path fill="#ffffff" d="M 1.285156 0 L 748.714844 0 L 748.714844 217.503906 L 1.285156 217.503906 Z M 1.285156 0 " fill-opacity="1" fill-rule="nonzero"/></g><g clip-path="url(#fe3b882f7e)"><path fill="#000000" d="M 370.03125 99.222656 L 323.898438 99.222656 L 323.898438 63.808594 L 309.933594 63.808594 L 309.933594 153.738281 L 323.898438 153.738281 L 323.898438 111.121094 L 370.03125 111.121094 L 370.03125 153.738281 L 383.851562 153.738281 L 383.851562 63.808594 L 370.03125 63.808594 M 233.894531 63.507812 C 228.828125 63.363281 218.539062 63.363281 209.425781 63.363281 L 209.425781 153.652344 L 223.53125 153.652344 L 223.53125 119.414062 C 227.0625 119.414062 234.335938 119.128906 240.207031 118.96875 C 248.429688 118.828125 269.882812 114.707031 269.738281 89.953125 C 269.96875 62.042969 239.03125 63.507812 233.894531 63.507812 Z M 233.160156 107.445312 L 223.832031 107.445312 L 223.832031 74.902344 L 231.769531 74.902344 C 235.441406 74.902344 257.113281 73.277344 257.773438 90.113281 C 258.648438 106.644531 241.527344 107.445312 233.160156 107.445312 Z M 103.695312 63.363281 L 103.839844 153.652344 L 160.492188 153.652344 L 160.492188 141.902344 L 117.945312 141.902344 L 117.945312 111.265625 L 148.066406 111.265625 C 148.066406 108.695312 147.921875 104.949219 148.066406 100.027344 L 117.945312 100.027344 L 117.945312 75.417969 L 160.476562 75.417969 C 160.335938 68.285156 160.476562 63.363281 160.476562 63.363281 Z M 21.339844 85.40625 C 21.339844 70.640625 40.882812 70.050781 52.421875 79.519531 C 56.382812 68.128906 56.683594 67.324219 56.683594 67.324219 C 23.019531 51.164062 7.664062 72.546875 7.664062 86.222656 C 7.664062 118.914062 54.027344 111.9375 47.339844 134.941406 C 44.988281 143.320312 30.078125 148.085938 12.886719 137.652344 C 11.636719 141.183594 9.585938 145.445312 7.519531 149.707031 C 30.222656 161.605469 59.683594 155.878906 60.644531 131.339844 C 61.964844 100.472656 21.339844 102.667969 21.339844 85.40625 Z M 616.753906 88.71875 C 614.703125 61.898438 588.683594 63.964844 582.960938 63.664062 C 578.179688 63.519531 568.050781 63.378906 559.296875 63.378906 L 559.296875 153.523438 L 573.402344 153.523438 L 573.402344 115.613281 C 578.179688 115.613281 579.714844 115.613281 586.917969 115.324219 L 612.636719 153.523438 L 629.753906 153.523438 L 601.328125 112.972656 C 608.960938 110.171875 617.859375 103.628906 616.753906 88.71875 Z M 582.15625 105.023438 C 579 105.023438 576.574219 105.023438 573.417969 104.878906 L 573.417969 74.382812 L 580.835938 74.382812 C 584.367188 74.382812 602.878906 73.277344 604.5 88.046875 C 606.464844 105.539062 585.972656 105.023438 582.15625 105.023438 Z M 709.84375 63.507812 L 693.527344 63.507812 L 663.996094 153.796875 L 677.957031 153.796875 C 682.363281 137.480469 683.839844 132.859375 683.839844 132.859375 L 720.363281 132.71875 C 724.625 144.769531 727.78125 153.957031 727.78125 153.957031 L 742.246094 153.957031 Z M 687.070312 122.515625 L 701.320312 77.914062 L 701.460938 77.914062 L 716.371094 122.371094 Z M 471.429688 60.9375 C 442.703125 60.9375 423.960938 82.175781 423.960938 108.550781 C 423.960938 134.925781 442.703125 156.164062 471.429688 156.164062 C 500.160156 156.164062 518.898438 134.925781 518.898438 108.550781 C 518.898438 82.175781 500.160156 60.9375 471.429688 60.9375 Z M 471.429688 143.164062 C 450.351562 143.164062 438.4375 127.808594 438.4375 108.550781 C 438.4375 89.523438 450.335938 73.9375 471.429688 73.9375 C 492.367188 73.9375 504.421875 89.292969 504.421875 108.550781 C 504.421875 127.578125 492.511719 143.164062 471.429688 143.164062 Z M 471.429688 143.164062 " fill-opacity="1" fill-rule="nonzero"/></g></svg>